PathFileType	4	(X/Y/Z)	/Users/itak/Documents/Research/Walk-IL/dataset/trc/00085_00006.trc
DataRate	CameraRate	NumFrames	NumMarkers	Units	OrigDataRate	OrigDataStartFrame	OrigNumFrames
100.000000	100.000000	4	53	mm	100.000000	196	524
Frame#	Time	RPSI			LPSI			L3			STRN			T10			C7			CLAV			RBAK			LBAK			LSHO			LUPA			LAEL			LAOL			LWTS			LWPS			LFRA			LIFD			LHPS			LHTS			RSHO			RUPA			RAEL			RAOL			RWTS			RWPS			RFRA			RIFD			RHTS			RHPS			RBHD			LFHD			RFHD			LBHD			LHIP			RHIP			RASI			LASI			LKNE			LTHI			LANK			LTIP			LTOE			LMT1			LMT5			LHEE			RKNE			RTHI			RANK			RTIP			RTOE			RMT1			RMT5			RHEE			
		X1	Y1	Z1	X2	Y2	Z2	X3	Y3	Z3	X4	Y4	Z4	X5	Y5	Z5	X6	Y6	Z6	X7	Y7	Z7	X8	Y8	Z8	X9	Y9	Z9	X10	Y10	Z10	X11	Y11	Z11	X12	Y12	Z12	X13	Y13	Z13	X14	Y14	Z14	X15	Y15	Z15	X16	Y16	Z16	X17	Y17	Z17	X18	Y18	Z18	X19	Y19	Z19	X20	Y20	Z20	X21	Y21	Z21	X22	Y22	Z22	X23	Y23	Z23	X24	Y24	Z24	X25	Y25	Z25	X26	Y26	Z26	X27	Y27	Z27	X28	Y28	Z28	X29	Y29	Z29	X30	Y30	Z30	X31	Y31	Z31	X32	Y32	Z32	X33	Y33	Z33	X34	Y34	Z34	X35	Y35	Z35	X36	Y36	Z36	X37	Y37	Z37	X38	Y38	Z38	X39	Y39	Z39	X40	Y40	Z40	X41	Y41	Z41	X42	Y42	Z42	X43	Y43	Z43	X44	Y44	Z44	X45	Y45	Z45	X46	Y46	Z46	X47	Y47	Z47	X48	Y48	Z48	X49	Y49	Z49	X50	Y50	Z50	X51	Y51	Z51	X52	Y52	Z52	X53	Y53	Z53	

197	1.96	-1024.431640625	1014.66162109375	483.9498291015625	-1027.03076171875	1005.127563476562	307.105712890625	-1021.336486816406	1066.298461914062	396.8378601074219	-763.9734497070312	1254.70947265625	398.8656005859375	-1032.759399414062	1199.613525390625	402.578857421875	-964.3807983398438	1464.535766601562	403.3897399902344	-789.7387084960938	1370.51416015625	397.9078063964844	-1030.458862304688	1327.670776367188	478.2637023925781	-992.2431640625	1429.217041015625	303.8240356445312	-893.2249755859375	1430.576782226562	226.2905731201172	-928.3306274414062	1308.582153320312	147.4661254882812	-942.69580078125	1095.941772460938	119.7246551513672	-994.0489501953125	1085.396850585938	213.9397735595703	-891.918701171875	839.1255493164062	152.7506866455078	-958.3706665039062	845.4788818359375	101.5721130371094	-943.7748413085938	986.87890625	102.8896865844727	-918.9359741210938	654.166015625	159.2640380859375	-943.3763427734375	760.3334350585938	96.01955413818359	-887.978271484375	754.2771606445312	140.1650695800781	-897.131103515625	1423.53759765625	576.7769165039062	-910.0618896484375	1353.485595703125	639.1705932617188	-949.1168212890625	1091.230590820312	670.3046264648438	-936.1480712890625	1068.34423828125	573.5628051757812	-809.4264526367188	839.313232421875	621.7940063476562	-877.0121459960938	822.5879516601562	674.9616088867188	-937.8099975585938	1008.8818359375	677.0238647460938	-808.74755859375	652.64208984375	597.9174194335938	-785.8905029296875	738.4227905273438	618.095703125	-838.1653442382812	734.8836059570312	673.8275756835938	-946.9180297851562	1637.207275390625	364.7022705078125	-756.1041259765625	1675.060302734375	458.7388305664062	-777.636962890625	1685.057861328125	334.8251037597656	-914.4959716796875	1619.822265625	497.9482421875	-915.9424438476562	945.2359008789062	221.8479309082031	-969.50439453125	938.0624389648438	563.5655517578125	-843.222412109375	946.29248046875	551.765869140625	-810.5938110351562	952.4326171875	285.5913696289062	-715.77783203125	517.8549194335938	306.8933715820312	-785.2376098632812	637.7291259765625	251.5047302246094	-730.296142578125	48.98219299316406	298.531494140625	-720.4183349609375	267.1334533691406	289.6056518554688	-529.5097045898438	62.9829216003418	334.3233947753906	-584.0485229492188	52.26665878295898	377.8058471679688	-624.3245849609375	50.14885711669922	274.5970458984375	-789.3936157226562	43.08984756469727	368.6506958007812	-1001.427490234375	502.6527404785156	543.4102783203125	-927.6483154296875	762.360595703125	573.2052612304688	-1305.042358398438	104.8923721313477	528.5704345703125	-1075.296752929688	396.8208923339844	547.9907836914062	-1113.256225585938	42.42547225952148	488.1317138671875	-1162.48193359375	57.60854339599609	449.6693725585938	-1192.85302734375	54.91189575195312	543.3079223632812	-1342.58447265625	136.4906616210938	472.2445068359375	
198	1.97	-1014.072265625	1015.657470703125	482.1495361328125	-1017.464904785156	1006.124633789062	305.4085083007812	-1011.217529296875	1066.95166015625	395.0133361816406	-754.708740234375	1256.318603515625	396.1495361328125	-1023.376770019531	1200.272338867188	400.5815124511719	-955.853515625	1465.374755859375	401.151611328125	-780.9692993164062	1371.97509765625	395.352783203125	-1021.358459472656	1328.304931640625	476.1177368164062	-983.7908325195312	1430.005859375	301.6046142578125	-884.8787231445312	1431.789306640625	223.8949737548828	-919.4111328125	1309.410278320312	145.1773223876953	-932.6475830078125	1096.492065429688	118.5177612304688	-984.02587890625	1086.094604492188	212.7586059570312	-881.6786499023438	839.72119140625	151.9552307128906	-948.0366821289062	846.0774536132812	100.6567993164062	-933.5054931640625	987.455078125	101.9136657714844	-909.0418701171875	654.7508544921875	158.5836639404297	-933.1466674804688	760.9066772460938	95.18827056884766	-877.8473510742188	754.8372802734375	139.45751953125	-888.2488403320312	1424.870727539062	574.3543701171875	-900.9268798828125	1354.774169921875	636.6423950195312	-940.1270141601562	1092.9853515625	668.31298828125	-926.81005859375	1069.8330078125	571.5670776367188	-801.0768432617188	840.643310546875	620.614013671875	-868.6546020507812	824.1751708984375	673.7677001953125	-928.9957885742188	1010.641357421875	675.29248046875	-800.380859375	653.972900390625	597.1727905273438	-777.5457763671875	739.7747802734375	617.2315673828125	-829.9249267578125	736.3577270507812	672.8781127929688	-938.89013671875	1638.341430664062	362.63671875	-747.7521362304688	1676.515991210938	455.8594055175781	-769.767333984375	1686.324096679688	332.0156860351562	-905.9227294921875	1621.201782226562	495.81298828125	-906.7741088867188	945.9837646484375	219.8488922119141	-958.8588256835938	939.0994873046875	561.74755859375	-832.6212768554688	947.4047241210938	549.0838012695312	-801.0280151367188	953.4539794921875	282.9378356933594	-708.332763671875	517.6961059570312	307.5416870117188	-776.7666015625	637.987548828125	251.4132080078125	-728.8538818359375	49.21077728271484	298.6704406738281	-715.0551147460938	266.7132873535156	290.0561828613281	-527.31298828125	58.58702087402344	335.7696228027344	-582.7334594726562	49.4908447265625	378.9973449707031	-622.5509643554688	48.9852180480957	275.4060974121094	-788.4905395507812	43.9435920715332	368.4383544921875	-986.839111328125	502.3742065429688	543.1812744140625	-915.8230590820312	763.0741577148438	571.0252075195312	-1299.926879882812	111.2249298095703	529.6491088867188	-1062.692749023438	397.7221984863281	548.68505859375	-1113.53759765625	42.36106109619141	488.0964050292969	-1160.822021484375	58.54275131225586	450.1639099121094	-1190.656005859375	55.35958862304688	543.7334594726562	-1335.611938476562	144.66162109375	473.4935607910156	
199	1.98	-1003.864074707031	1016.635437011719	480.2892150878906	-1008.016967773438	1007.061279296875	303.6739807128906	-1001.260925292969	1067.67919921875	393.10986328125	-745.4896850585938	1257.923095703125	393.4358825683594	-1014.036010742188	1200.993896484375	398.4784240722656	-947.3033447265625	1466.246337890625	398.8849182128906	-772.224365234375	1373.433227539062	392.8059997558594	-1012.279418945312	1328.988403320312	473.9091186523438	-975.2946166992188	1430.855712890625	299.3427429199219	-876.4628295898438	1433.08056640625	221.4979095458984	-910.3790283203125	1310.339599609375	142.8398895263672	-922.3817749023438	1097.14013671875	117.283935546875	-973.8978271484375	1086.880981445312	211.4748382568359	-871.0771484375	840.4527587890625	151.2232208251953	-937.2896728515625	846.7527465820312	99.73921203613281	-922.9219970703125	988.1221923828125	100.9205017089844	-898.7089233398438	655.448974609375	157.9930725097656	-922.4615478515625	761.5570068359375	94.39021301269531	-867.3179321289062	755.496826171875	138.8427734375	-879.4027709960938	1426.224853515625	571.9092407226562	-891.8334350585938	1356.114868164062	634.108154296875	-931.2418212890625	1094.787231445312	666.2996215820312	-917.5958862304688	1071.372924804688	569.600341796875	-792.8543090820312	841.9736328125	619.4608154296875	-860.4462890625	825.79150390625	672.5729370117188	-920.2935180664062	1012.4453125	673.5311889648438	-792.2051391601562	655.3013305664062	596.4542236328125	-769.3966674804688	741.1105346679688	616.385986328125	-821.8742065429688	737.8584594726562	671.9501342773438	-930.8363037109375	1639.466552734375	360.6236877441406	-739.3430786132812	1677.9541015625	452.9709167480469	-761.8733520507812	1687.549072265625	329.2089538574219	-897.3001708984375	1622.598022460938	493.7127685546875	-897.71923828125	946.7069702148438	217.7890014648438	-948.3359375	940.1280517578125	559.8825073242188	-822.1514892578125	948.5875244140625	546.3745727539062	-791.5934448242188	954.44482421875	280.2588195800781	-701.0512084960938	517.481201171875	307.9765930175781	-768.4157104492188	638.2278442382812	251.2036590576172	-727.6134033203125	49.42071151733398	298.7911376953125	-710.119384765625	266.2711791992188	290.3736877441406	-525.389892578125	54.65536117553711	336.820068359375	-581.562255859375	47.21829986572266	379.9369506835938	-621.0401611328125	48.00033950805664	276.0099182128906	-787.7060546875	44.67609024047852	368.2524719238281	-971.1012573242188	501.8470153808594	543.1721801757812	-903.5608520507812	763.708984375	568.7102661132812	-1293.923583984375	118.0753631591797	530.8233032226562	-1048.890625	398.4147338867188	549.521728515625	-1113.76318359375	42.14984893798828	488.0836181640625	-1158.858276367188	59.52367401123047	450.7113952636719	-1188.132690429688	55.96369552612305	544.1845703125	-1327.48291015625	153.3296813964844	474.826416015625	
200	1.99	-993.8683471679688	1017.516479492188	478.3838195800781	-998.72802734375	1007.906860351562	301.9021606445312	-991.5183715820312	1068.447021484375	391.1203002929688	-736.3466186523438	1259.467651367188	390.7483215332031	-1004.763000488281	1201.7568359375	396.258056640625	-938.7493896484375	1467.126098632812	396.5836791992188	-763.511474609375	1374.84521484375	390.2842712402344	-1003.248596191406	1329.699951171875	471.6358947753906	-966.7566528320312	1431.737670898438	297.0322570800781	-867.9741821289062	1434.4052734375	219.1031036376953	-901.23681640625	1311.330200195312	140.4556121826172	-911.9244384765625	1097.846923828125	116.0001983642578	-963.7021484375	1087.7158203125	210.0595245361328	-860.1212768554688	841.2908325195312	150.5556030273438	-926.132080078125	847.4600219726562	98.82002258300781	-912.0504150390625	988.8385620117188	99.89360046386719	-887.9042358398438	656.2282104492188	157.5052947998047	-911.3092041015625	762.2451171875	93.63347625732422	-856.37353515625	756.233154296875	138.3318786621094	-870.61083984375	1427.555908203125	569.4512939453125	-882.8095703125	1357.458862304688	631.5740966796875	-922.4739379882812	1096.582275390625	664.2888793945312	-908.5352783203125	1072.906616210938	567.676513671875	-784.7442016601562	843.2636108398438	618.3411254882812	-852.3881225585938	827.3914184570312	671.3784790039062	-911.7060546875	1014.238952636719	671.7677001953125	-784.2540283203125	656.5800170898438	595.7564086914062	-761.4462280273438	742.3883666992188	615.5532836914062	-814.0123901367188	739.3426513671875	671.0420532226562	-922.7645874023438	1640.552490234375	358.6737976074219	-730.8809204101562	1679.336547851562	450.0845642089844	-753.962890625	1688.698608398438	326.4171447753906	-888.6362915039062	1623.973388671875	491.6522827148438	-888.7899780273438	947.3971557617188	215.6844635009766	-937.9873046875	941.0660400390625	557.9680786132812	-811.8668823242188	949.7908935546875	543.6719360351562	-782.3201904296875	955.385498046875	277.584228515625	-694.048095703125	517.1810913085938	308.1395874023438	-760.3685302734375	638.37646484375	250.8230438232422	-726.5773315429688	49.59382247924805	298.9033203125	-705.6471557617188	265.79931640625	290.550537109375	-523.7596435546875	51.28720855712891	337.5095825195312	-580.542236328125	45.43982696533203	380.6429748535156	-619.7850341796875	47.16448211669922	276.4363403320312	-787.0452270507812	45.28564071655273	368.1071166992188	-954.2997436523438	501.0745544433594	543.35595703125	-890.9157104492188	764.2257690429688	566.313232421875	-1286.958984375	125.4676132202148	532.124755859375	-1033.912963867188	398.88037109375	550.4609985351562	-1113.754638671875	41.76207733154297	488.1317749023438	-1156.468994140625	60.61666870117188	451.3184814453125	-1185.2265625	56.88556671142578	544.7022094726562	-1318.183715820312	162.4702301025391	476.290283203125	
